<?xml version="1.0" standalone="no"?>
<!DOCTYPE svg PUBLIC "-//W3C//DTD SVG 20010904//EN"
 "http://www.w3.org/TR/2001/REC-SVG-20010904/DTD/svg10.dtd">
<svg version="1.0" xmlns="http://www.w3.org/2000/svg"
 width="700.000000pt" height="700.000000pt" viewBox="0 0 700.000000 700.000000"
 preserveAspectRatio="xMidYMid meet">
<metadata>
Created by potrace 1.11, written by Peter Selinger 2001-2013
</metadata>
<g transform="translate(0.000000,700.000000) scale(0.100000,-0.100000)"
fill="#000000" stroke="none">
<path d="M3358 6775 c-2 -1 -41 -5 -88 -9 -142 -9 -191 -16 -365 -48 -197 -36
-512 -128 -640 -187 -11 -6 -58 -26 -105 -46 -200 -86 -461 -239 -657 -387
-59 -45 -113 -87 -119 -92 -6 -6 -40 -36 -75 -66 -95 -82 -269 -259 -355 -363
-108 -131 -107 -129 -126 -158 -9 -14 -23 -32 -30 -40 -26 -27 -150 -221 -211
-332 -140 -250 -263 -553 -321 -792 -1 -5 -5 -19 -9 -30 -7 -23 -8 -29 -41
-200 -23 -119 -28 -149 -41 -255 -22 -177 -22 -656 0 -740 2 -8 7 -44 10 -80
4 -36 9 -74 11 -85 81 -425 154 -653 317 -983 98 -197 273 -470 393 -612 341
-403 670 -669 1099 -889 111 -57 316 -148 350 -156 5 -1 17 -5 25 -8 132 -55
460 -140 620 -161 25 -4 77 -11 115 -17 159 -22 523 -32 666 -18 41 4 103 10
139 13 70 7 72 7 235 36 119 22 153 30 290 67 50 14 97 26 105 28 8 2 78 26
155 55 162 60 359 151 495 229 152 86 392 251 476 326 7 5 31 26 55 45 76 59
321 307 400 403 383 466 627 981 734 1552 19 99 26 149 41 295 19 178 18 508
-1 668 -3 23 -8 63 -11 90 -3 26 -7 56 -9 67 -13 79 -19 111 -37 200 -24 122
-86 340 -129 455 -62 167 -82 213 -155 360 -312 624 -825 1150 -1444 1477
-319 169 -710 299 -1045 349 -27 4 -57 9 -65 10 -13 3 -45 7 -170 21 -43 5
-477 12 -482 8z"/>
</g>
</svg>
