<?xml version="1.0" standalone="no"?>
<!DOCTYPE svg PUBLIC "-//W3C//DTD SVG 20010904//EN"
 "http://www.w3.org/TR/2001/REC-SVG-20010904/DTD/svg10.dtd">
<svg version="1.0" xmlns="http://www.w3.org/2000/svg"
 width="495.000000pt" height="495.000000pt" viewBox="0 0 495.000000 495.000000"
 preserveAspectRatio="xMidYMid meet">
<metadata>
Created by potrace 1.11, written by Peter Selinger 2001-2013
</metadata>
<g transform="translate(0.000000,495.000000) scale(0.100000,-0.100000)"
fill="#000000" stroke="none">
<path d="M2190 4935 c-157 -21 -179 -25 -321 -60 -180 -44 -302 -90 -494 -185
-399 -198 -726 -486 -967 -855 -204 -311 -327 -634 -384 -1005 -19 -123 -26
-466 -12 -610 32 -328 143 -672 318 -978 131 -231 306 -444 511 -622 116 -102
127 -111 184 -150 28 -18 52 -36 55 -40 9 -10 222 -136 288 -169 198 -100 431
-176 692 -226 169 -32 514 -45 671 -24 132 18 144 20 160 25 10 3 30 6 45 8
56 7 210 47 304 78 375 123 706 327 984 604 148 148 246 275 393 509 38 60
131 255 170 354 111 288 162 570 161 891 -2 277 -37 509 -115 755 -27 85 -91
240 -136 333 -212 433 -568 813 -987 1054 -133 77 -371 181 -495 217 -140 41
-287 74 -385 86 -30 4 -66 9 -80 12 -60 11 -471 10 -560 -2z"/>
</g>
</svg>
