<?xml version="1.0" standalone="no"?>
<!DOCTYPE svg PUBLIC "-//W3C//DTD SVG 20010904//EN"
 "http://www.w3.org/TR/2001/REC-SVG-20010904/DTD/svg10.dtd">
<svg version="1.0" xmlns="http://www.w3.org/2000/svg"
 width="495.000000pt" height="495.000000pt" viewBox="0 0 495.000000 495.000000"
 preserveAspectRatio="xMidYMid meet">
<metadata>
Created by potrace 1.11, written by Peter Selinger 2001-2013
</metadata>
<g transform="translate(0.000000,495.000000) scale(0.100000,-0.100000)"
fill="#000000" stroke="none">
<path d="M2298 4945 c-1 -1 -34 -5 -73 -9 -38 -3 -81 -8 -95 -10 -14 -3 -43
-7 -65 -11 -22 -3 -47 -7 -55 -10 -8 -2 -31 -6 -50 -9 -65 -10 -284 -76 -400
-122 -497 -197 -928 -563 -1205 -1024 -171 -286 -277 -584 -331 -935 -19 -118
-25 -466 -11 -585 4 -36 9 -84 12 -108 3 -23 16 -95 30 -160 114 -529 385
-992 786 -1342 116 -102 127 -111 184 -150 28 -18 52 -36 55 -40 9 -10 222
-136 288 -169 101 -51 268 -117 392 -154 99 -30 154 -43 300 -72 14 -3 48 -8
75 -11 28 -3 77 -9 110 -14 149 -19 495 -2 700 35 472 86 935 335 1287 691
154 156 237 264 385 499 120 190 258 574 298 825 4 25 9 52 10 60 12 67 19
194 19 350 1 187 -7 294 -28 418 -3 17 -8 45 -11 62 -36 211 -160 539 -287
765 -117 206 -361 499 -526 633 -26 20 -56 45 -67 55 -75 69 -300 214 -442
286 -225 112 -545 211 -768 236 -27 3 -61 8 -75 12 -26 6 -436 14 -442 8z"/>
</g>
</svg>
