<?xml version="1.0" standalone="no"?>
<!DOCTYPE svg PUBLIC "-//W3C//DTD SVG 20010904//EN"
 "http://www.w3.org/TR/2001/REC-SVG-20010904/DTD/svg10.dtd">
<svg version="1.0" xmlns="http://www.w3.org/2000/svg"
 width="495.000000pt" height="495.000000pt" viewBox="0 0 495.000000 495.000000"
 preserveAspectRatio="xMidYMid meet">
<metadata>
Created by potrace 1.11, written by Peter Selinger 2001-2013
</metadata>
<g transform="translate(0.000000,495.000000) scale(0.100000,-0.100000)"
fill="#000000" stroke="none">
<path d="M2245 4910 c-38 -4 -87 -11 -107 -14 -21 -3 -55 -9 -75 -12 -20 -3
-66 -12 -102 -20 -36 -8 -77 -17 -91 -20 -35 -7 -254 -80 -298 -100 -325 -141
-550 -292 -778 -519 -315 -314 -513 -651 -627 -1070 -26 -93 -29 -108 -52
-238 -34 -190 -39 -530 -10 -717 18 -117 38 -216 56 -281 12 -41 22 -78 23
-84 12 -58 92 -258 152 -377 42 -85 139 -248 179 -303 208 -285 437 -499 710
-666 321 -197 626 -298 1040 -345 43 -5 382 -4 430 1 53 5 135 16 160 21 199
37 298 63 437 114 584 213 1059 642 1334 1206 41 83 74 158 74 166 0 8 4 18 9
23 11 13 76 221 96 309 17 76 40 216 51 311 9 77 9 391 0 470 -16 136 -33 230
-71 388 -2 10 -25 80 -50 155 -228 673 -758 1213 -1438 1466 -95 36 -297 92
-367 102 -19 3 -42 7 -50 9 -8 3 -37 7 -65 10 -27 3 -61 8 -75 11 -42 9 -421
12 -495 4z"/>
</g>
</svg>
